<?xml version="1.0" encoding="UTF-8"?>
<svg version="1.1" viewBox="0 0 1600 1600" width="1280" height="1280" xmlns="http://www.w3.org/2000/svg">
  <style>
    path {
      fill: #000000;
    }
    @media (prefers-color-scheme: dark) {
      path {
        fill: #ffffff;
      }
    }
  </style>
<path transform="translate(526 437)" d="m0 0c6.43 3.96 13 7.69 19.5 11.4 2.41 1.37 4.82 2.74 7.23 4.11 0.593 0.338 1.19 0.676 1.8 1.02 5.79 3.3 11.5 6.67 17.3 10.1 9.53 5.59 19.2 11 28.9 16.3 8.63 4.77 17.2 9.7 25.7 14.7 5.77 3.38 11.6 6.7 17.4 9.92 6.88 3.78 13.7 7.71 20.4 11.7 8.62 5.06 17.3 9.98 26.1 14.8 9.61 5.3 19.1 10.7 28.6 16.3 7.09 4.16 14.2 8.2 21.4 12.2 9.39 5.23 18.7 10.6 28 16 6.51 3.81 13.1 7.52 19.7 11.2 6.16 3.4 12.2 6.94 18.3 10.5 9.82 5.76 19.7 11.3 29.7 16.8 12.4 6.88 24.8 13.9 37.1 21.1 2.18 1.26 4.37 2.53 6.55 3.79 1.09 0.632 2.19 1.26 3.31 1.92 8.51 4.91 17.1 9.72 25.7 14.5 8.31 4.64 16.5 9.42 24.7 14.2 6.51 3.81 13.1 7.52 19.7 11.2 6.16 3.4 12.2 6.94 18.3 10.5 8.62 5.06 17.3 9.98 26.1 14.8 9.6 5.3 19.1 10.7 28.6 16.3 8.13 4.77 16.3 9.4 24.6 14 6.45 3.59 12.9 7.26 19.2 11 1.32 0.762 1.32 0.762 2.66 1.54 2.15 1.24 4.29 2.49 6.44 3.73-0.00114-0.599-0.00228-1.2-0.00345-1.81-0.0672-35.5-0.119-71-0.15-107-0.00375-4.27-0.00763-8.53-0.0116-12.8-7.87e-4 -0.849-0.00157-1.7-0.00238-2.57-0.013-13.7-0.0367-27.5-0.0643-41.2-0.0281-14.1-0.0447-28.2-0.0508-42.3-0.00411-8.7-0.0171-17.4-0.0415-26.1-0.0159-5.97-0.0206-11.9-0.0168-17.9 0.00192-3.44-9.66e-4 -6.88-0.0171-10.3-0.015-3.74-0.0113-7.48-0.00315-11.2-0.00874-1.08-0.0175-2.15-0.0265-3.26 0.0866-14.7 4.94-26.9 15.1-37.6 9.67-9.39 20.8-14.2 34.3-14.5 14.2 0.288 25.3 5.03 36.1 14.2 10.5 11.1 14.5 24 14.4 39 0.00256 1.17 0.00513 2.34 0.00777 3.54 0.00406 3.22-0.00522 6.43-0.0203 9.65-0.013 3.48-0.00857 6.96-0.00629 10.4 0.00157 6.02-0.0078 12-0.0247 18-0.0244 8.7-0.0322 17.4-0.036 26.1-0.00656 14.1-0.0265 28.2-0.0549 42.3-0.0276 13.7-0.0488 27.4-0.0615 41.1-7.88e-4 0.846-0.00158 1.69-0.00239 2.56-0.00392 4.24-0.00771 8.49-0.0114 12.7-0.0311 35.2-0.0839 70.3-0.151 105 1.44-0.00277 1.44-0.00277 2.9-0.00559 23.3-0.0445 46.6-0.0773 70-0.098 11.3-0.0103 22.6-0.0243 33.8-0.0473 9.83-0.02 19.7-0.0328 29.5-0.0373 5.2-0.0026 10.4-0.00868 15.6-0.0233 4.91-0.0137 9.81-0.0177 14.7-0.0148 1.79-5.46e-4 3.59-0.00447 5.38-0.0122 18.1-0.0742 36.4 0.724 50.1 14.2 11.2 12.8 14.9 26.2 14.2 42.8-0.96 11.9-8.01 23-16.5 31.1-9.65 7.56-20.9 11.3-33 11.5-0.82 0.0192-1.64 0.0385-2.49 0.0583-2.78 0.061-5.56 0.107-8.35 0.151-0.992 0.0186-1.98 0.0371-3.01 0.0562-31.4 0.583-62.7 0.437-94.1 0.395-8.61-0.0114-17.2-0.0167-25.8-0.0217-17.6-0.0103-35.2-0.0277-52.9-0.0503 0.163 0.561 0.325 1.12 0.493 1.7 0.54 2.45 0.63 4.61 0.626 7.11 9.74e-4 0.972 0.00195 1.94 0.00295 2.94-0.00408 1.07-0.00815 2.13-0.0123 3.23-4.07e-4 1.13-8.14e-4 2.27-0.00123 3.44-0.00271 3.81-0.0127 7.63-0.0228 11.4-0.00414 2.73-0.00681 5.46-0.00964 8.18-0.00984 8.2-0.0295 16.4-0.0503 24.6-0.00959 3.86-0.0182 7.73-0.0269 11.6-0.0293 12.9-0.0611 25.7-0.1 38.6-0.0101 3.33-0.0202 6.67-0.0303 10-0.00251 0.829-0.00501 1.66-0.0076 2.51-0.0401 13.4-0.0633 26.8-0.0794 40.2-0.0168 13.8-0.0485 27.6-0.0949 41.3-0.0257 7.73-0.0449 15.5-0.0474 23.2-0.00219 6.59-0.018 13.2-0.0513 19.8-0.0166 3.36-0.0247 6.71-0.0197 10.1 0.024 19.8-0.879 37.1-15.6 52.1-11 8.96-24.6 14.4-39 13-15.1-2.29-27.2-9.28-36.8-21.2-5.18-7.83-8.31-18.4-8.31-27.8-0.00199-0.978-0.00398-1.96-0.00603-2.96 0.00291-1.07 0.00583-2.13 0.00883-3.23-8.54e-4 -1.14-0.00171-2.28-0.00259-3.45-0.00165-3.83 0.00386-7.65 0.00932-11.5 8.39e-4 -2.74 1.68e-4 -5.48-4.43e-4 -8.22-5.24e-4 -5.9 0.00261-11.8 0.00824-17.7 0.00813-8.53 0.0107-17.1 0.012-25.6 0.00219-13.8 0.00884-27.7 0.0183-41.5 0.00918-13.4 0.0163-26.9 0.0205-40.3 2.63e-4 -0.829 5.25e-4 -1.66 7.96e-4 -2.51 0.00131-4.16 0.00257-8.32 0.00381-12.5 0.0104-34.5 0.028-69 0.0503-104-3.37 1.76-6.74 3.52-10.1 5.29-0.95 0.496-1.9 0.992-2.88 1.5-6.45 3.37-12.8 6.83-19.1 10.5-1.93 1.1-3.86 2.2-5.79 3.3-1.48 0.842-1.48 0.842-2.99 1.7-5.51 3.12-11.1 6.18-16.6 9.25-8.31 4.61-16.6 9.25-24.9 13.9-12.9 7.29-25.8 14.4-38.8 21.5-17.6 9.71-35.3 19.5-52.8 29.3-17.3 9.72-34.7 19.4-52 29-4.92 2.73-9.83 5.46-14.7 8.19-3.5 1.94-7 3.89-10.5 5.83-8.58 4.76-17.2 9.55-25.7 14.3-8.84 4.96-17.7 9.89-26.6 14.8-25.6 14.2-25.6 14.2-51.1 28.8-8.7 5.09-17.6 9.81-26.5 14.6-10.6 5.67-21.1 11.4-31.5 17.4-6.58 3.74-13.2 7.4-19.9 11-9.73 5.28-19.4 10.7-29 16.1-11.7 6.67-23.5 13.3-35.4 19.8-0.625 0.344-1.25 0.689-1.89 1.04-4.96 2.73-9.92 5.46-14.9 8.19-9.37 5.16-18.7 10.4-28 15.7-1.22 0.695-2.44 1.39-3.67 2.08-6.01 3.41-11.9 6.87-17.7 10.6-11.9 7.68-25.2 8.78-39 6.73-12.7-3.27-23.5-11.6-30.4-22.6-6.24-11.1-8-21.1-7.93-33.7-0.00171-1.15-0.00342-2.3-0.00518-3.48-0.00328-3.82 0.00768-7.65 0.0186-11.5 0.00168-2.75 3.35e-4 -5.5-8.85e-4 -8.25-0.00105-5.91 0.0052-11.8 0.0165-17.7 0.0163-8.54 0.0215-17.1 0.024-25.6 0.00437-13.9 0.0177-27.7 0.0366-41.6 0.0184-13.5 0.0325-26.9 0.041-40.4 5.25e-4 -0.831 0.00105-1.66 0.00159-2.52 0.00261-4.17 0.00514-8.34 0.00762-12.5 0.0207-34.5 0.0559-69.1 0.101-104-0.901 9.22e-4 -1.8 0.00184-2.73 0.00279-22.1 0.0222-44.1 0.0387-66.2 0.049-10.7 0.00513-21.3 0.0121-32 0.0236-9.31 0.0101-18.6 0.0164-27.9 0.0186-4.92 0.00129-9.84 0.00425-14.8 0.0116-12.1 0.0173-24.3 9.24e-4 -36.4-0.106-0.741-0.00614-1.48-0.0123-2.25-0.0186-4.72-0.0428-9.43-0.128-14.1-0.238-1.12-0.0137-2.24-0.0274-3.4-0.0416-13.8-0.419-25.9-5.59-36-15-9.85-10.6-14-23.7-13.5-38.1 1.16-13.5 6.6-25.2 16.5-34.5 3.37-2.56 6.83-4.6 10.6-6.54 0.941-0.495 0.941-0.495 1.9-1 11.9-5.73 25.4-4.84 38.2-4.79 1.99 5.65e-4 3.98 2.46e-4 5.98-8.85e-4 5.38-5.71e-4 10.8 0.0111 16.1 0.0251 5.63 0.0126 11.3 0.0137 16.9 0.0161 10.6 0.0062 21.3 0.0226 31.9 0.0427 12.1 0.0224 24.3 0.0334 36.4 0.0434 24.9 0.0209 49.9 0.056 74.8 0.101-0.00228-0.88-0.00228-0.88-0.0046-1.78-0.0896-34.8-0.158-69.6-0.2-104-5e-3 -4.19-0.0102-8.37-0.0155-12.6-0.00105-0.833-0.0021-1.67-0.00318-2.52-0.0174-13.5-0.0489-26.9-0.0857-40.4-0.0375-13.8-0.0596-27.7-0.0677-41.5-0.00547-8.52-0.0227-17-0.0553-25.6-0.0213-5.86-0.0275-11.7-0.0223-17.6 0.00255-3.37-0.00341-6.74-0.0228-10.1-0.119-21.7 0.721-39.1 16-55.8 22-20.9 48.6-14.5 71.6-0.289zm12.8 123v479c3.74-1.5 6.96-3 10.4-4.95 1.59-0.89 1.59-0.89 3.22-1.8 1.14-0.641 2.28-1.28 3.46-1.94 1.2-0.673 2.41-1.35 3.61-2.02 2.51-1.4 5.01-2.8 7.51-4.2 4.7-2.63 9.41-5.24 14.1-7.85 9.36-5.19 18.7-10.4 28-15.7 10.4-5.92 20.9-11.7 31.4-17.5 0.612-0.337 1.22-0.674 1.85-1.02 0.612-0.337 1.22-0.674 1.85-1.02 9.72-5.36 19.4-10.8 29.1-16.2 3.41-1.9 6.83-3.79 10.2-5.68 11.5-6.38 23-12.8 34.4-19.3 8.52-4.82 17.1-9.58 25.6-14.3 7.31-4.06 14.6-8.15 21.9-12.3 8.26-4.69 16.6-9.27 24.9-13.8 6.63-3.6 13.2-7.29 19.8-11 7.46-4.24 15-8.41 22.5-12.5 8.61-4.67 17.2-9.45 25.7-14.3 6.43-3.65 12.9-7.26 19.4-10.8 6.27-3.47 12.5-6.98 18.8-10.5 8.64-4.84 17.3-9.65 26-14.4 3.64-2 7.28-4.01 10.9-6.02 2.94-1.62 5.87-3.24 8.81-4.86 3.25-1.79 6.5-3.59 9.75-5.39 1.46-0.8 1.46-0.8 2.96-1.62 0.885-0.494 1.77-0.989 2.68-1.5 0.774-0.427 1.55-0.854 2.34-1.29 2.08-1.24 2.08-1.24 2.76-4.28-0.48-0.26-0.96-0.52-1.46-0.788-10.2-5.52-20.3-11.2-30.2-17-8.28-4.86-16.6-9.63-25-14.3-13.2-7.38-26.4-14.9-39.5-22.5-10.8-6.23-21.6-12.4-32.4-18.5-9.19-5.12-18.3-10.4-27.4-15.7-8.11-4.75-16.3-9.35-24.5-13.9-8.64-4.82-17.2-9.75-25.8-14.7-7.42-4.29-14.9-8.5-22.4-12.7-8.18-4.56-16.3-9.2-24.4-13.9-9.06-5.32-18.2-10.5-27.4-15.6-7.99-4.46-16-8.97-23.9-13.5-0.594-0.34-1.19-0.68-1.8-1.03-2.91-1.67-5.82-3.33-8.73-5-4.57-2.62-9.14-5.23-13.7-7.84-1.68-0.958-3.35-1.92-5.03-2.88-0.866-0.495-1.73-0.99-2.62-1.5-57.3-32.8-57.3-32.8-60.1-34.3-1.78-1.02-3.57-2.04-5.35-3.06-3.94-2.25-7.89-4.51-11.8-6.78-0.987-0.568-0.987-0.568-1.99-1.15-1.73-0.996-3.46-1.99-5.19-2.99-2.11-1.41-2.11-1.41-3.42-1.33z"/>
<path transform="translate(962,203)" d="m0 0c2.76 1.82 4.52 3.04 6 6 0.275 4.3-0.265 7.41-1.85 11.4-0.428 1.09-0.855 2.18-1.3 3.3-0.488 1.21-0.975 2.42-1.48 3.67-0.524 1.33-1.05 2.65-1.57 3.98-1.21 3.07-2.43 6.15-3.65 9.22-2.46 6.19-4.89 12.4-7.32 18.6-4.26 10.9-8.53 21.7-12.8 32.6-2.49 6.32-4.97 12.6-7.45 19-11.5 29.3-11.5 29.3-16.3 41-0.3 0.737-0.599 1.47-0.908 2.23-2.51 5.97-2.51 5.97-5.34 8.08-2.68 0.892-4.59 1.25-7.38 1.38-0.75 0.049-1.5 0.098-2.27 0.148-3.53-0.786-5.36-2.63-7.35-5.52-1.69-3.52-3.01-7.14-4.31-10.8-0.359-0.979-0.718-1.96-1.09-2.97-0.879-2.4-1.75-4.81-2.6-7.22-4.3 1.92-6.75 4.93-9.69 8.5-1.07 1.28-2.14 2.56-3.22 3.83-0.526 0.627-1.05 1.25-1.59 1.9-2.01 2.37-4.09 4.66-6.19 6.95-3.01 3.31-5.88 6.7-8.69 10.2-3.68 4.55-7.55 8.86-11.5 13.1-3.8 4.11-7.33 8.41-10.8 12.8-2.33 2.82-4.77 5.52-7.25 8.21-4.08 4.44-7.91 9.02-11.7 13.7-3.31 3.99-6.82 7.78-10.3 11.6-2 2.05-2 2.05-2.97 4.21h-2c-0.289 0.598-0.578 1.2-0.875 1.81-1.12 2.19-1.12 2.19-3.12 5.19h-2c-0.236 0.556-0.472 1.11-0.715 1.68-1.6 2.88-3.59 4.98-5.85 7.38-3.5 3.78-6.84 7.6-10.1 11.6-7.81 9.61-15.4 17.8-28.4 19.3-9.1 0.227-16.8-1.65-23.8-7.54-4.87-5.06-7.13-11.2-7.16-18.2 1.36-11.5 9.95-19.4 17.5-27.6 2.4-2.63 4.64-5.34 6.87-8.12 3.39-4.2 6.94-8.19 10.6-12.1 4.5-4.81 8.73-9.75 12.9-14.9 2.14-2.61 4.37-5.12 6.64-7.61 3.08-3.37 6.01-6.82 8.88-10.4 3.68-4.55 7.55-8.86 11.5-13.1 3.8-4.11 7.33-8.41 10.8-12.8 2.33-2.82 4.77-5.52 7.25-8.21 4.11-4.47 7.96-9.08 11.8-13.8 2.88-3.48 5.91-6.81 8.99-10.1 2.94-3.39 5.58-6.97 8.24-10.6-0.605-0.0501-1.21-0.1-1.83-0.152-2.76-0.233-5.53-0.478-8.29-0.723-0.951-0.0786-1.9-0.157-2.88-0.238-12.5-1.13-12.5-1.13-15.9-5.07-1.43-3.59-1.6-5.97-1.12-9.81 2.53-4.52 4.68-6.81 9.31-9.06 1.16-0.588 2.31-1.18 3.5-1.78 0.658-0.334 1.32-0.668 1.99-1.01 4.38-2.29 8.65-4.76 12.9-7.21 8.28-4.7 16.6-9.36 24.9-14 8.5-4.75 17-9.55 25.4-14.4 7.77-4.45 15.6-8.81 23.4-13.2 8.48-4.74 16.9-9.61 25.2-14.6 20.7-12.2 20.7-12.2 28.3-9.79z"/>
<path transform="translate(1091,283)" d="m0 0c2.62 2.69 2.62 2.69 4 6-0.396 4.97-1.64 9.18-3.44 13.8-0.264 0.684-0.528 1.37-0.8 2.07-0.594 1.54-1.19 3.08-1.79 4.61-1.01 2.6-2 5.21-3 7.81-6.44 16.9-13.1 33.7-19.8 50.5-0.542 1.37-0.542 1.37-1.1 2.77-0.358 0.903-0.716 1.81-1.08 2.74-2.54 6.42-5.07 12.9-7.59 19.3-2.14 5.47-4.29 10.9-6.45 16.4-0.482 1.22-0.965 2.45-1.46 3.71-1.48 3.75-2.98 7.49-4.48 11.2-0.449 1.14-0.898 2.28-1.36 3.45-0.426 1.06-0.852 2.11-1.29 3.2-0.555 1.39-0.555 1.39-1.12 2.81-1.8 3.63-3.71 6.88-7.47 8.6-3.36 0.657-6.16 1.09-9.57 0.629-6.24-4.51-8.55-12.5-11.1-19.4-1.25-3.34-2.31-5.94-5.14-8.19-0.223 0.531-0.446 1.06-0.676 1.61-1.78 3.22-4.12 5.87-6.51 8.64-0.498 0.582-0.997 1.16-1.51 1.76-3.1 3.61-6.22 7.2-9.37 10.8-2.63 3.01-5.22 6.05-7.81 9.09-3.55 4.16-7.13 8.27-10.8 12.3-3.85 4.24-7.46 8.64-11.1 13.1-2.9 3.5-5.95 6.84-9.01 10.2-2.27 2.55-4.41 5.17-6.55 7.83-3.89 4.81-8.01 9.33-12.2 13.8-3.94 4.24-7.61 8.65-11.2 13.2-2.32 2.81-4.74 5.5-7.21 8.18-3.35 3.64-6.57 7.35-9.69 11.2-0.737 0.905-1.47 1.81-2.23 2.74-1.29 1.6-2.58 3.21-3.84 4.83-6.09 7.48-13.7 12.2-23.2 13.7-7.69 0.77-15.1-0.271-21.5-4.77-6.09-5.16-9.77-9.89-10.5-18.1-0.0946-12.9 9.19-21.5 17.5-30.3 3.96-4.2 7.61-8.59 11.2-13.1 2.5-3.01 5.12-5.89 7.78-8.75 4.29-4.61 8.3-9.38 12.3-14.3 3.13-3.78 6.46-7.36 9.78-11 2.39-2.66 4.66-5.39 6.9-8.18 3.66-4.53 7.51-8.82 11.5-13.1 3.8-4.11 7.33-8.41 10.8-12.8 2.33-2.82 4.77-5.52 7.25-8.21 4.1-4.46 7.95-9.06 11.8-13.8 3.05-3.69 6.26-7.21 9.5-10.7 1.8-1.88 1.8-1.88 2.75-4h2v-4c-0.635-0.0396-1.27-0.0793-1.92-0.12-2.9-0.192-5.8-0.41-8.7-0.63-0.999-0.0619-2-0.124-3.03-0.188-5.94-0.472-9.8-1.1-14.3-5.06-1.53-3.06-1.23-5.62-1-9 3.17-8.67 16-13.3 23.6-17.5 8.61-4.77 17.1-9.63 25.6-14.6 8.5-4.99 17.1-9.8 25.7-14.5 7.05-3.81 14-7.75 21-11.7 9.04-5.19 18.1-10.3 27.2-15.4 3.64-2.04 7.28-4.08 10.9-6.14 0.743-0.421 1.49-0.843 2.25-1.28 1.35-0.763 2.69-1.53 4.03-2.3 6.18-3.5 10-4.19 16.7-1.58z"/>
</svg>
